<svg xmlns="http://www.w3.org/2000/svg" style="display: none;"><symbol id="user" viewBox="0 0 512 512"><title>user</title><g> <g> <path d="M256,0c-74.439,0-135,60.561-135,135s60.561,135,135,135s135-60.561,135-135S330.439,0,256,0z M256,240 c-57.897,0-105-47.103-105-105c0-57.897,47.103-105,105-105c57.897,0,105,47.103,105,105C361,192.897,313.897,240,256,240z"/> </g> </g><g> <g> <path d="M423.966,358.195C387.006,320.667,338.009,300,286,300h-60c-52.008,0-101.006,20.667-137.966,58.195 C51.255,395.539,31,444.833,31,497c0,8.284,6.716,15,15,15h420c8.284,0,15-6.716,15-15 C481,444.833,460.745,395.539,423.966,358.195z M61.66,482c7.515-85.086,78.351-152,164.34-152h60 c85.989,0,156.825,66.914,164.34,152H61.66z"/> </g> </g></symbol><symbol id="security" viewBox="0 0 512 512"><title>security</title><g> <g> <path d="M446,197.809h-20V170C426,76.262,349.738,0,256,0S86,76.262,86,170v27.809H66c-11.046,0-20,8.954-20,20V492 c0,11.046,8.954,20,20,20h380c11.046,0,20-8.954,20-20V217.809C466,206.763,457.046,197.809,446,197.809z M126,170 c0-71.682,58.318-130,130-130s130,58.318,130,130v27.809H126V170z M426,472H86V237.809h340V472z"/> </g> </g><g> <g> <path d="M256,294.905c-33.084,0-60,26.916-60,60c0,33.084,26.916,60,60,60s60-26.916,60-60 C316,321.821,289.084,294.905,256,294.905z M256,374.905c-11.028,0-20-8.972-20-20c0-11.028,8.972-20,20-20s20,8.972,20,20 C276,365.933,267.028,374.905,256,374.905z"/> </g> </g></symbol><symbol id="google" viewBox="0 0 512 512"><title>google</title><circle style="fill:#ECE5DD;" cx="256" cy="256" r="256"/><path id="SVGCleanerId_0" style="fill:#D9CBBD;" d="M256,0c-11.317,0-22.461,0.744-33.391,2.167 C348.216,18.53,445.217,125.933,445.217,256s-97.002,237.47-222.609,253.833C233.539,511.256,244.683,512,256,512 c141.385,0,256-114.616,256-256S397.385,0,256,0z"/><path id="SVGCleanerId_1" style="fill:#CD2900;" d="M364.203,179.657c-25.199-36.011-64.905-56.666-108.94-56.666 c-36.301,0-70.242,14.422-95.57,40.607l-5.83,6.029l-51.479-44.154l6.367-6.791c18.615-19.849,40.603-35.478,65.352-46.453 c25.639-11.369,52.946-17.134,81.161-17.134c33.165,0,65.94,8.141,94.781,23.544c28.782,15.372,53.717,38.007,72.107,65.461 l2.37,3.537c1.563,2.333,0.841,5.501-1.578,6.928l-50.126,29.546c-2.197,1.296-5.021,0.682-6.483-1.408L364.203,179.657z"/><path id="SVGCleanerId_2" style="fill:#FFCE00;" d="M79.976,354.072C63.218,324.233,54.359,290.32,54.359,256 c0-45.452,14.868-88.359,42.998-124.081l5.744-7.296l51.487,44.162l-5.103,6.685c-17.814,23.339-27.231,51.186-27.231,80.531 c0,22.016,5.518,43.843,15.959,63.121l4.005,7.395L84.523,362.17L79.976,354.072z"/><path id="SVGCleanerId_3" style="fill:#40A459;" d="M255.263,456.904c-66.426,0-128.513-32.892-166.085-87.983l-5.248-7.696 l57.705-35.662l4.829,6.853c24.968,35.436,65.641,56.592,108.799,56.592c35.847,0,70.748-14.839,95.753-40.713l5.831-6.034 l51.429,44.111l-6.354,6.791c-18.618,19.895-40.622,35.561-65.399,46.564C310.855,451.125,283.516,456.904,255.263,456.904z"/><path style="fill:#1D81CE;" d="M356.125,343.108l5.088-6.684c8.183-10.75,14.649-22.638,19.224-35.344l-98.586-0.002 c-2.698,0-4.885-2.187-4.885-4.885v-58.125c0-2.698,2.187-4.885,4.885-4.885h173.734l0.581,22.928 c-0.022,45.333-14.844,88.145-42.862,123.806l-5.743,7.309L356.125,343.108z"/><path d="M463.957,255.787l-0.57-22.261c-0.116-4.526-3.818-8.135-8.344-8.135H277.524c-4.611,0-8.348,3.736-8.348,8.348v66.783 c0,4.61,3.736,8.348,8.348,8.348l91.286,0.002c-20.371,43.723-64.599,72.346-113.547,72.346 c-69.044,0-125.217-56.173-125.217-125.217s56.173-125.217,125.217-125.217c43.681,0,83.509,22.201,106.539,59.389 c2.389,3.858,7.422,5.099,11.336,2.796l57.55-33.922c1.926-1.135,3.316-2.995,3.859-5.165c0.543-2.169,0.194-4.464-0.971-6.373 c-18.301-30.019-44.085-55.132-74.564-72.628c-31.431-18.039-67.306-27.575-103.75-27.575c-115.075,0-208.696,93.62-208.696,208.696 s93.62,208.696,208.696,208.696S463.959,371.075,463.959,256C463.959,255.93,463.958,255.858,463.957,255.787z M255.263,64 c64.698,0,123.704,31.634,159.491,85.058l-43.255,25.495c-26.598-38.014-69.466-60.466-116.236-60.466 c-39.983,0-76.151,16.627-101.97,43.322l-38.048-32.634C150.299,87.395,200.096,64,255.263,64z M104.351,137.427l38.055,32.64 c-18.218,23.868-29.057,53.656-29.057,85.934c0,24.361,6.173,47.308,17.033,67.36L87.74,349.714 C72.163,321.977,63.263,290.011,63.263,256C63.263,211.288,78.627,170.096,104.351,137.427z M255.263,448 c-65.894,0-124.137-33.371-158.729-84.096l42.651-26.358c25.707,36.484,68.154,60.367,116.078,60.367 c39.312,0,75.935-16.298,102.156-43.429l38.003,32.594C360.36,424.544,310.503,448,255.263,448z M406.303,374.414l-38.006-32.597 c8.744-11.487,15.821-24.422,20.801-38.512c0.904-2.554,0.51-5.389-1.054-7.601c-1.565-2.213-4.106-3.528-6.816-3.528l-95.356-0.002 v-50.087h161.034l0.357,14.019C447.241,300.706,431.932,341.797,406.303,374.414z"/><circle style="fill:#ECE5DD;" cx="256" cy="256" r="256"/><g> <path id="SVGCleanerId_0_1_" style="fill:#D9CBBD;" d="M256,0c-11.317,0-22.461,0.744-33.391,2.167 C348.216,18.53,445.217,125.933,445.217,256s-97.002,237.47-222.609,253.833C233.539,511.256,244.683,512,256,512 c141.385,0,256-114.616,256-256S397.385,0,256,0z"/> </g><g> <path id="SVGCleanerId_1_1_" style="fill:#CD2900;" d="M364.203,179.657c-25.199-36.011-64.905-56.666-108.94-56.666 c-36.301,0-70.242,14.422-95.57,40.607l-5.83,6.029l-51.479-44.154l6.367-6.791c18.615-19.849,40.603-35.478,65.352-46.453 c25.639-11.369,52.946-17.134,81.161-17.134c33.165,0,65.94,8.141,94.781,23.544c28.782,15.372,53.717,38.007,72.107,65.461 l2.37,3.537c1.563,2.333,0.841,5.501-1.578,6.928l-50.126,29.546c-2.197,1.296-5.021,0.682-6.483-1.408L364.203,179.657z"/> </g><g> <path id="SVGCleanerId_2_1_" style="fill:#FFCE00;" d="M79.976,354.072C63.218,324.233,54.359,290.32,54.359,256 c0-45.452,14.868-88.359,42.998-124.081l5.744-7.296l51.487,44.162l-5.103,6.685c-17.814,23.339-27.231,51.186-27.231,80.531 c0,22.016,5.518,43.843,15.959,63.121l4.005,7.395L84.523,362.17L79.976,354.072z"/> </g><g> <path id="SVGCleanerId_3_1_" style="fill:#40A459;" d="M255.263,456.904c-66.426,0-128.513-32.892-166.085-87.983l-5.248-7.696 l57.705-35.662l4.829,6.853c24.968,35.436,65.641,56.592,108.799,56.592c35.847,0,70.748-14.839,95.753-40.713l5.831-6.034 l51.429,44.111l-6.354,6.791c-18.618,19.895-40.622,35.561-65.399,46.564C310.855,451.125,283.516,456.904,255.263,456.904z"/> </g><path style="fill:#1D81CE;" d="M356.125,343.108l5.088-6.684c8.183-10.75,14.649-22.638,19.224-35.344l-98.586-0.002 c-2.698,0-4.885-2.187-4.885-4.885v-58.125c0-2.698,2.187-4.885,4.885-4.885h169.542c2.332,0,4.238,1.859,4.297,4.191l0.475,18.737 c-0.022,45.333-14.844,88.145-42.862,123.806l-5.743,7.309L356.125,343.108z"/></symbol><symbol id="twitter" viewBox="1 -47 511.999 511"><title>twitter</title><path d="m161.019531 416.605469c193.21875 0 298.878907-160.074219 298.878907-298.878907 0-4.546874-.09375-9.074218-.296876-13.578124 20.507813-14.828126 38.335938-33.332032 52.398438-54.394532-18.820312 8.367188-39.078125 13.996094-60.324219 16.539063 21.6875-13.007813 38.339844-33.578125 46.191407-58.101563-20.296876 12.03125-42.773438 20.773438-66.703126 25.496094-19.167968-20.417969-46.460937-33.1875-76.679687-33.1875-58.007813 0-105.050781 47.042969-105.050781 105.03125 0 8.246094.921875 16.261719 2.722656 23.953125-87.304688-4.394531-164.722656-46.191406-216.527344-109.753906-9.019531 15.523437-14.222656 33.558593-14.222656 52.800781 0 36.441406 18.546875 68.617188 46.746094 87.4375-17.234375-.53125-33.421875-5.261719-47.574219-13.136719-.015625.441407-.015625.871094-.015625 1.339844 0 50.875 36.207031 93.351563 84.277344 102.976563-8.828125 2.402343-18.117188 3.695312-27.699219 3.695312-6.757813 0-13.34375-.664062-19.746094-1.894531 13.375 41.738281 52.15625 72.109375 98.132813 72.960937-35.953125 28.179688-81.246094 44.964844-130.46875 44.964844-8.46875 0-16.835938-.484375-25.058594-1.453125 46.488281 29.796875 101.695312 47.1875 161.023438 47.1875" fill="#1da1f2"/></symbol><symbol id="google-play" viewBox="0 0 511.399 511.399"><title>google-play</title><path style="fill:#FF9100;" d="M459.87,217.357l-86.609-50.019l-118.66,88.66l118.658,88.66l86.904-50.191 c13.55-8.232,21.636-22.617,21.636-38.467S473.712,225.766,459.87,217.357z"/><path style="fill:#25D9F8;" d="M284.601,256c-0.13,0.167-104.915,134.891-105,135l-136.5,107.5 c-8.401-8.401-13.5-19.799-13.5-32.401V45.157c0-12.599,5.099-24,13.5-32.399L179.601,121 C179.686,121.109,284.471,255.833,284.601,256z"/><polygon style="fill:#00C0F1;" points="284.601,256 254.601,294.699 254.601,217.299 "/><path style="fill:#7FE881;" d="M373.402,167.199L284.601,256L43.101,12.759c2.999-2.701,6-4.801,9.3-6.901 c14.399-8.099,31.5-7.8,45.601,0.901L254.601,98.8L373.402,167.199z"/><polygon style="fill:#5BC980;" points="373.402,167.199 284.601,256 254.601,226 254.601,98.8 "/><path style="fill:#FF637B;" d="M373.402,344.799L254.601,413.2L97.702,504.8c-7.2,4.199-15,6.599-23.101,6.599 c-7.5,0-15-2.1-22.2-6c-3.3-2.1-6.301-4.199-9.3-6.899l241.5-242.5L373.402,344.799z"/><polygon style="fill:#E63950;" points="373.402,344.799 254.601,413.2 254.601,286 284.601,256 "/></symbol><symbol id="add" viewBox="0 0 512 512"><title>add</title><path d="M492,127.5h-18v-18c0-11.046-8.954-20-20-20c-11.046,0-20,8.954-20,20v18h-18c-11.046,0-20,8.954-20,20s8.954,20,20,20 h18v18c0,11.046,8.954,20,20,20c11.046,0,20-8.954,20-20v-18h18c11.046,0,20-8.954,20-20S503.046,127.5,492,127.5z"/><path d="M315.409,249.231C345.854,225.711,365.5,188.86,365.5,147.5C365.5,76.645,307.855,19,237,19S108.5,76.645,108.5,147.5 c0,41.359,19.646,78.211,50.091,101.731C68.293,280.793,0,367.427,0,473c0,11.046,8.954,20,20,20h434c11.046,0,20-8.954,20-20 C474,367.401,405.656,280.775,315.409,249.231z M148.5,147.5c0-48.799,39.701-88.5,88.5-88.5s88.5,39.701,88.5,88.5 S285.799,236,237,236S148.5,196.299,148.5,147.5z M41.008,453C51.061,353.73,135.123,276,237,276s185.939,77.73,195.992,177 H41.008z"/></symbol><symbol id="facebook" viewBox="0 0 512 512"><title>facebook</title><path d="m512 256c0 141.386719-114.613281 256-256 256s-256-114.613281-256-256 114.613281-256 256-256 256 114.613281 256 256zm0 0" fill="#4a7aff"/><path d="m267.234375 511.738281c136.171875-5.878906 244.765625-118.121093 244.765625-255.738281 0-.996094-.027344-1.988281-.039062-2.984375l-177.699219-177.703125-190 198.59375 105.566406 105.566406-48.675781 66.183594zm0 0" fill="#0053bf"/><path d="m334.261719 75.3125v57.96875s-66.554688-9.660156-66.554688 33.277344v42.9375h60.113281l-7.511718 65.480468h-52.601563v170.679688h-66.554687v-170.679688l-56.894532-1.074218v-64.40625h55.820313v-49.378906s-3.683594-73.457032 68.703125-86.949219c30.058594-5.605469 65.480469 2.144531 65.480469 2.144531zm0 0" fill="#fff"/><path d="m334.261719 133.28125v-57.96875s-35.421875-7.75-65.480469-2.144531c-4.695312.875-9.0625 2.007812-13.136719 3.347656v369.140625h12.0625v-170.679688h52.597657l7.515624-65.480468h-60.113281s0 0 0-42.9375 66.554688-33.277344 66.554688-33.277344zm0 0" fill="#dce1eb"/></symbol><symbol id="facebook-1" viewBox="0 0 24 24"><title>facebook-1</title><path d="m15.997 3.985h2.191v-3.816c-.378-.052-1.678-.169-3.192-.169-6.932 0-5.046 7.85-5.322 9h-3.487v4.266h3.486v10.734h4.274v-10.733h3.345l.531-4.266h-3.877c.188-2.824-.761-5.016 2.051-5.016z" fill="#3b5999"/></symbol><symbol id="whatsapp" viewBox="0 0 512.303 512.303"><title>whatsapp</title><path style="fill:#4CAF50;" d="M256.014,0.134C114.629,0.164,0.038,114.804,0.068,256.189c0.01,48.957,14.059,96.884,40.479,138.1 L0.718,497.628c-2.121,5.496,0.615,11.671,6.111,13.792c1.229,0.474,2.534,0.717,3.851,0.715c1.222,0.006,2.435-0.203,3.584-0.619 l106.667-38.08c120.012,74.745,277.894,38.048,352.638-81.965s38.048-277.894-81.965-352.638 C350.922,13.495,303.943,0.087,256.014,0.134z"/><path style="fill:#FAFAFA;" d="M378.062,299.889c0,0-26.133-12.8-42.496-21.333c-18.517-9.536-40.277,8.32-50.517,18.475 c-15.937-6.122-30.493-15.362-42.816-27.179c-11.819-12.321-21.059-26.877-27.179-42.816c10.155-10.261,27.968-32,18.475-50.517 c-8.427-16.384-21.333-42.496-21.333-42.517c-1.811-3.594-5.49-5.863-9.515-5.867h-21.333c-31.068,5.366-53.657,32.474-53.333,64 c0,33.493,40.085,97.835,67.115,124.885s91.371,67.115,124.885,67.115c31.526,0.324,58.634-22.266,64-53.333v-21.333 C384.018,305.401,381.71,301.686,378.062,299.889z"/></symbol><symbol id="rss" viewBox="0 0 24 24"><title>rss</title><circle cx="3.429" cy="20.571" r="3.429"/><path d="m11.429 24h4.57c0-8.821-7.178-15.999-15.999-16v4.572c6.302.001 11.429 5.126 11.429 11.428z"/><path d="m24 24c0-13.234-10.766-24-24-24v4.571c10.714 0 19.43 8.714 19.43 19.429z"/></symbol><symbol id="messenger" viewBox="0 0 512 512"><title>messenger</title><path style="fill:#1E88E5;" d="M256,0C114.624,0,0,106.112,0,237.024c0,74.592,37.216,141.12,95.392,184.576V512l87.168-47.84 c23.264,6.432,47.904,9.92,73.44,9.92c141.376,0,256-106.112,256-237.024C512,106.112,397.376,0,256,0z"/><polygon style="fill:#FAFAFA;" points="281.44,319.2 216.256,249.664 89.056,319.2 228.96,170.656 295.744,240.192 421.376,170.656 "/></symbol><symbol id="twitter-1" viewBox="0 -47 512.00203 512"><title>twitter-1</title><path d="m191.011719 419.042969c-22.140625 0-44.929688-1.792969-67.855469-5.386719-40.378906-6.332031-81.253906-27.457031-92.820312-33.78125l-30.335938-16.582031 32.84375-10.800781c35.902344-11.808594 57.742188-19.132813 84.777344-30.601563-27.070313-13.109375-47.933594-36.6875-57.976563-67.171875l-7.640625-23.199219 6.265625.960938c-5.941406-5.988281-10.632812-12.066407-14.269531-17.597657-12.933594-19.640624-19.78125-43.648437-18.324219-64.214843l1.4375-20.246094 12.121094 4.695313c-5.113281-9.65625-8.808594-19.96875-10.980469-30.78125-5.292968-26.355469-.863281-54.359376 12.476563-78.851563l10.558593-19.382813 14.121094 16.964844c44.660156 53.648438 101.226563 85.472656 168.363282 94.789063-2.742188-18.902344-.6875-37.148438 6.113281-53.496094 7.917969-19.039063 22.003906-35.1875 40.722656-46.691406 20.789063-12.777344 46-18.96875 70.988281-17.433594 26.511719 1.625 50.582032 11.558594 69.699219 28.742187 9.335937-2.421874 16.214844-5.011718 25.511719-8.511718 5.59375-2.109375 11.9375-4.496094 19.875-7.230469l29.25-10.078125-19.074219 54.472656c1.257813-.105468 2.554687-.191406 3.910156-.253906l31.234375-1.414062-18.460937 25.234374c-1.058594 1.445313-1.328125 1.851563-1.703125 2.417969-1.488282 2.242188-3.339844 5.035157-28.679688 38.867188-6.34375 8.472656-9.511718 19.511719-8.921875 31.082031 2.246094 43.96875-3.148437 83.746094-16.042969 118.230469-12.195312 32.628906-31.09375 60.621093-56.164062 83.199219-31.023438 27.941406-70.582031 47.066406-117.582031 56.847656-23.054688 4.800781-47.8125 7.203125-73.4375 7.203125zm0 0" fill="#25d9f8"/><path d="m476.855469 57.628906 19.074219-54.476562-29.25 10.078125c-7.9375 2.734375-14.277344 5.125-19.875 7.230469-9.296876 3.503906-16.171876 6.09375-25.507813 8.515624-19.121094-17.183593-43.1875-27.117187-69.703125-28.746093-24.988281-1.535157-50.195312 4.65625-70.984375 17.433593-9.5625 5.878907-17.902344 12.96875-24.839844 21.03125v374.824219c2.917969-.523437 5.8125-1.082031 8.679688-1.679687 46.996093-9.78125 86.558593-28.910156 117.582031-56.847656 25.070312-22.582032 43.96875-50.574219 56.164062-83.199219 12.894532-34.484375 18.289063-74.265625 16.042969-118.234375-.59375-11.570313 2.574219-22.605469 8.921875-31.078125 25.335938-33.832031 27.191406-36.625 28.679688-38.867188.371094-.566406.644531-.976562 1.703125-2.421875l18.457031-25.230468-31.230469 1.414062c-1.355469.058594-2.65625.148438-3.914062.253906zm0 0" fill="#00c0f1"/></symbol><symbol id="linkedin" viewBox="0 0 512 512"><title>linkedin</title><rect y="160" style="fill:#1976D2;" width="114.496" height="352"/><path style="fill:#1976D2;" d="M426.368,164.128c-1.216-0.384-2.368-0.8-3.648-1.152c-1.536-0.352-3.072-0.64-4.64-0.896 c-6.08-1.216-12.736-2.08-20.544-2.08l0,0l0,0c-66.752,0-109.088,48.544-123.04,67.296V160H160v352h114.496V320 c0,0,86.528-120.512,123.04-32c0,79.008,0,224,0,224H512V274.464C512,221.28,475.552,176.96,426.368,164.128z"/><circle style="fill:#1976D2;" cx="56" cy="56" r="56"/></symbol><symbol id="google-maps" viewBox="0 0 512 512"><title>google-maps</title><circle style="fill:#40A459;" cx="255.722" cy="256" r="255.445"/><path style="fill:#378B4E;" d="M255.722,0.555c-1.944,0-3.878,0.03-5.812,0.073c-0.492,0.011-0.983,0.022-1.474,0.037 c-1.843,0.051-3.682,0.119-5.514,0.209c-0.474,0.023-0.945,0.056-1.418,0.081c-1.394,0.077-2.785,0.165-4.174,0.264 c-0.699,0.05-1.397,0.098-2.094,0.153c-1.61,0.128-3.217,0.27-4.82,0.428c-0.829,0.082-1.654,0.173-2.479,0.262 c-0.991,0.108-1.98,0.221-2.968,0.34c-0.856,0.103-1.714,0.202-2.567,0.313c125.334,16.327,222.126,123.498,222.126,253.282 S347.737,492.953,222.403,509.28c0.854,0.111,1.71,0.211,2.567,0.313c0.987,0.119,1.977,0.232,2.968,0.34 c0.826,0.09,1.652,0.181,2.479,0.262c1.603,0.158,3.209,0.3,4.82,0.428c0.696,0.056,1.395,0.104,2.094,0.153 c1.388,0.099,2.779,0.188,4.174,0.264c0.473,0.027,0.945,0.058,1.418,0.081c1.833,0.09,3.672,0.158,5.514,0.209 c0.491,0.014,0.982,0.026,1.474,0.037c1.932,0.043,3.868,0.073,5.812,0.073c141.079,0,255.445-114.367,255.445-255.445 S396.801,0.555,255.722,0.555z"/><path style="fill:#898790;" d="M222.403,233.787l106.563-61.152c0,0,116.569,24.829,143.473-24.263l8.485-15.483l7.379,16.04 c15.321,33.304,23.42,70.329,23.42,107.071c0,84.691-41.95,163.833-112.217,211.703l-7.25,4.94L222.403,233.787z"/><path style="fill:#7A797F;" d="M511.166,256c0-44.143-11.198-85.671-30.908-121.898l-7.82,14.269 c-9.45,17.245-21.888,34.878-34.284,50.741c4.162,18.295,6.374,37.333,6.374,56.888c0,71.337-29.248,135.834-76.4,182.176 l23.852,34.666C463.639,427.598,511.166,347.012,511.166,256z"/><path style="fill:#3D9AE3;" d="M255.722,512c-87.455,0-168.01-44.081-215.484-117.917l-4.527-7.04l142.267-119.937l163.74,230.122 l-10.434,3.385C306.874,508.169,281.452,512,255.722,512z"/><path style="fill:#1D81CE;" d="M342.752,496.827l-17.317-24.795c-30.569,19.333-65.625,32.915-103.137,37.801 c10.906,1.42,22.13,1.612,33.424,1.612C286.17,511.445,315.674,506.6,342.752,496.827z"/><path style="fill:#FFFFFF;" d="M177.978,267.106l44.425-33.319l170.805,238.278l-8.302,4.872 c-11.729,6.884-24.073,12.861-36.69,17.766l-6.499,2.527L177.978,267.106z"/><path style="fill:#E0E0E3;" d="M341.718,497.229c18.2-6.475,35.457-14.944,51.49-25.164l-24.615-34.338 c-13.395,13.232-28.248,24.992-44.293,35.023L341.718,497.229z"/><path style="fill:#FFCE00;" d="M31.37,379.188c-7.01-12.718-12.964-26.113-17.696-39.813l-2.112-8.059l299.691-208.592 l44.425,33.319L35.712,387.042L31.37,379.188z"/><path style="fill:#CD2900;" d="M382.579,250.216c-15.713-16.41-94.094-100.753-94.094-149.704C288.485,45.089,333.575,0,388.997,0 s100.512,45.089,100.512,100.512c0,48.918-78.382,133.287-94.095,149.704l0,0C391.917,253.87,386.077,253.871,382.579,250.216 L382.579,250.216z"/><path style="fill:#891D00;" d="M388.997,134.386c-24.803,0-44.98-20.178-44.98-44.98s20.178-44.98,44.98-44.98 c24.803,0,44.98,20.178,44.98,44.98S413.8,134.386,388.997,134.386z"/><path style="fill:#FFFFFF;" d="M144.659,186.586c29.088,0,52.755-23.666,52.755-52.755c0-4.6-3.729-8.33-8.33-8.33h-33.319 c-4.6,0-8.33,3.729-8.33,8.33c0,4.6,3.729,8.33,8.33,8.33h24.018c-3.769,15.901-18.088,27.766-35.125,27.766 c-19.902,0-36.095-16.193-36.095-36.095s16.193-36.095,36.095-36.095c8.8,0,17.275,3.202,23.865,9.015 c3.452,3.044,8.715,2.713,11.757-0.736c3.043-3.45,2.713-8.714-0.736-11.757c-9.636-8.5-22.025-13.181-34.886-13.181 c-29.088,0-52.755,23.666-52.755,52.755S115.57,186.586,144.659,186.586z"/></symbol><symbol id="call" viewBox="0 0 384 384"><title>call</title><path d="M353.188,252.052c-23.51,0-46.594-3.677-68.469-10.906c-10.719-3.656-23.896-0.302-30.438,6.417l-43.177,32.594 c-50.073-26.729-80.917-57.563-107.281-107.26l31.635-42.052c8.219-8.208,11.167-20.198,7.635-31.448 c-7.26-21.99-10.948-45.063-10.948-68.583C132.146,13.823,118.323,0,101.333,0H30.813C13.823,0,0,13.823,0,30.813 C0,225.563,158.438,384,353.188,384c16.99,0,30.813-13.823,30.813-30.813v-70.323C384,265.875,370.177,252.052,353.188,252.052z"/></symbol><symbol id="call-1" viewBox="0 0 384 384"><title>call-1</title><path d="M353.188,252.052c-23.51,0-46.594-3.677-68.469-10.906c-10.906-3.719-23.323-0.833-30.438,6.417l-43.177,32.594 c-50.073-26.729-80.917-57.563-107.281-107.26l31.635-42.052c8.219-8.208,11.167-20.198,7.635-31.448 c-7.26-21.99-10.948-45.063-10.948-68.583C132.146,13.823,118.323,0,101.333,0H30.812C13.823,0,0,13.823,0,30.812 C0,225.563,158.438,384,353.188,384c16.99,0,30.813-13.823,30.813-30.813v-70.323C384,265.875,370.177,252.052,353.188,252.052z M362.667,353.188c0,5.229-4.25,9.479-9.479,9.479c-182.99,0-331.854-148.865-331.854-331.854c0-5.229,4.25-9.479,9.479-9.479 h70.521c5.229,0,9.479,4.25,9.479,9.479c0,25.802,4.052,51.125,11.979,75.115c1.104,3.542,0.208,7.208-3.375,10.938L82.75,165.427 c-2.458,3.26-2.844,7.625-1,11.26c29.927,58.823,66.292,95.188,125.531,125.542c3.604,1.885,8.021,1.49,11.292-0.979 l49.677-37.635c2.51-2.51,6.271-3.406,9.667-2.25c24.156,7.979,49.479,12.021,75.271,12.021c5.229,0,9.479,4.25,9.479,9.479 V353.188z"/></symbol><symbol id="envelope" viewBox="0 0 479.058 479.058"><title>envelope</title><path d="m434.146 59.882h-389.234c-24.766 0-44.912 20.146-44.912 44.912v269.47c0 24.766 20.146 44.912 44.912 44.912h389.234c24.766 0 44.912-20.146 44.912-44.912v-269.47c0-24.766-20.146-44.912-44.912-44.912zm0 29.941c2.034 0 3.969.422 5.738 1.159l-200.355 173.649-200.356-173.649c1.769-.736 3.704-1.159 5.738-1.159zm0 299.411h-389.234c-8.26 0-14.971-6.71-14.971-14.971v-251.648l199.778 173.141c2.822 2.441 6.316 3.655 9.81 3.655s6.988-1.213 9.81-3.655l199.778-173.141v251.649c-.001 8.26-6.711 14.97-14.971 14.97z"/></symbol><symbol id="envelope-1" viewBox="0 0 512 512"><title>envelope-1</title><path d="M10.688,95.156C80.958,154.667,204.26,259.365,240.5,292.01c4.865,4.406,10.083,6.646,15.5,6.646 c5.406,0,10.615-2.219,15.469-6.604c36.271-32.677,159.573-137.385,229.844-196.896c4.375-3.698,5.042-10.198,1.5-14.719 C494.625,69.99,482.417,64,469.333,64H42.667c-13.083,0-25.292,5.99-33.479,16.438C5.646,84.958,6.313,91.458,10.688,95.156z"/><path d="M505.813,127.406c-3.781-1.76-8.229-1.146-11.375,1.542C416.51,195.01,317.052,279.688,285.76,307.885 c-17.563,15.854-41.938,15.854-59.542-0.021c-33.354-30.052-145.042-125-208.656-178.917c-3.167-2.688-7.625-3.281-11.375-1.542 C2.417,129.156,0,132.927,0,137.083v268.25C0,428.865,19.135,448,42.667,448h426.667C492.865,448,512,428.865,512,405.333 v-268.25C512,132.927,509.583,129.146,505.813,127.406z"/></symbol><symbol id="placeholder" viewBox="0 0 512 512"><title>placeholder</title><g> <g> <path d="M256,0C156.748,0,76,80.748,76,180c0,33.534,9.289,66.26,26.869,94.652l142.885,230.257 c2.737,4.411,7.559,7.091,12.745,7.091c0.04,0,0.079,0,0.119,0c5.231-0.041,10.063-2.804,12.75-7.292L410.611,272.22 C427.221,244.428,436,212.539,436,180C436,80.748,355.252,0,256,0z M384.866,256.818L258.272,468.186l-129.905-209.34 C113.734,235.214,105.8,207.95,105.8,180c0-82.71,67.49-150.2,150.2-150.2S406.1,97.29,406.1,180 C406.1,207.121,398.689,233.688,384.866,256.818z"/> </g> </g><g> <g> <path d="M256,90c-49.626,0-90,40.374-90,90c0,49.309,39.717,90,90,90c50.903,0,90-41.233,90-90C346,130.374,305.626,90,256,90z M256,240.2c-33.257,0-60.2-27.033-60.2-60.2c0-33.084,27.116-60.2,60.2-60.2s60.1,27.116,60.1,60.2 C316.1,212.683,289.784,240.2,256,240.2z"/> </g> </g></symbol><symbol id="order" viewBox="0 0 64 64"><title>order</title><path d="M61.707,34.293,49.293,21.879A2.978,2.978,0,0,0,47.171,21H30v2h5V38h2V23H47.171a1,1,0,0,1,.708.293L49.586,25H45a2,2,0,0,0-2,2v9a2,2,0,0,0,2,2H60v8a1,1,0,0,1-1,1H56.92a6.991,6.991,0,0,0-13.84,0H28.92a6.991,6.991,0,0,0-13.84,0H13a1,1,0,0,1-1-1V37H10v9a3,3,0,0,0,3,3h2.08a6.978,6.978,0,0,0,2.031,4H2v2H50a7.006,7.006,0,0,0,6.92-6H59a3,3,0,0,0,3-3V35A1,1,0,0,0,61.707,34.293ZM17,48a5,5,0,1,1,5,5A5.006,5.006,0,0,1,17,48Zm9.889,5a6.978,6.978,0,0,0,2.031-4H43.08a6.978,6.978,0,0,0,2.031,4ZM50,53a5,5,0,1,1,5-5A5.006,5.006,0,0,1,50,53ZM45,36V27h6.586L60,35.414V36Z"/><rect x="21" y="47" width="2" height="2"/><rect x="49" y="47" width="2" height="2"/><rect x="2" y="44" width="5" height="2"/><rect x="4" y="40" width="3" height="2"/><rect x="5" y="36" width="2" height="2"/><path d="M15,35A13,13,0,1,0,2,22,13.015,13.015,0,0,0,15,35Zm0-24A11,11,0,1,1,4,22,11.013,11.013,0,0,1,15,11Z"/><path d="M15,31a1,1,0,0,0,.707-.293C16.351,30.063,22,24.29,22,20A7,7,0,0,0,8,20c0,4.29,5.649,10.063,6.293,10.707A1,1,0,0,0,15,31Zm0-16a5.006,5.006,0,0,1,5,5c0,2.566-3.147,6.531-5,8.551-1.853-2.02-5-5.985-5-8.551A5.006,5.006,0,0,1,15,15Z"/><path d="M18,20a3,3,0,1,0-3,3A3,3,0,0,0,18,20Zm-4,0a1,1,0,1,1,1,1A1,1,0,0,1,14,20Z"/><rect x="40" y="40" width="4" height="2"/></symbol><symbol id="user-1" viewBox="0 0 512 512"><title>user-1</title><path d="M437.02,330.98c-27.883-27.882-61.071-48.523-97.281-61.018C378.521,243.251,404,198.548,404,148 C404,66.393,337.607,0,256,0S108,66.393,108,148c0,50.548,25.479,95.251,64.262,121.962 c-36.21,12.495-69.398,33.136-97.281,61.018C26.629,379.333,0,443.62,0,512h40c0-119.103,96.897-216,216-216s216,96.897,216,216 h40C512,443.62,485.371,379.333,437.02,330.98z M256,256c-59.551,0-108-48.448-108-108S196.449,40,256,40 c59.551,0,108,48.448,108,108S315.551,256,256,256z"/></symbol><symbol id="pakistan" viewBox="0 0 475.584 475.584"><title>pakistan</title><path style="fill:#F3F4F5;" d="M0.002,237.794c0,86.123,45.787,161.549,114.346,203.278V34.516 C45.789,76.237,0.002,151.667,0.002,237.794z"/><g> <path style="fill:#036535;" d="M237.788,0c0,0,88.293,324.011,91.939,327.657c24.044-2.155,47.586-12.011,66.603-29.759 c15.27-14.256,25.666-31.79,31.144-50.473c-1.393,34.546-15.844,68.582-43.118,94.034c-18.72,17.474-41.068,28.636-64.421,33.6 L237.788,475.58c131.332,0,237.794-106.462,237.794-237.786C475.582,106.454,369.121,0,237.788,0z"/> <path style="fill:#036535;" d="M230.091,475.449c-0.571-0.015-1.149-0.045-1.72-0.068 C228.946,475.408,229.517,475.434,230.091,475.449z"/> <path style="fill:#036535;" d="M228.372,0.199c0.571-0.023,1.149-0.045,1.72-0.06C229.517,0.154,228.946,0.176,228.372,0.199z"/> </g><path style="fill:#F3F4F5;" d="M384.357,341.458c27.277-25.452,41.725-59.488,43.118-94.034 c-5.478,18.687-15.874,36.217-31.144,50.473c-19.017,17.748-42.558,27.604-66.603,29.759c-2.534,16.618-5.79,32.56-9.792,47.402 C343.289,370.095,365.636,358.932,384.357,341.458z"/><g> <path style="fill:#263778;" d="M230.091,0.139C232.648,0.06,235.213,0,237.788,0C235.235,0,232.671,0.06,230.091,0.139z"/> <path style="fill:#263778;" d="M237.788,475.58c-2.576,0-5.14-0.053-7.697-0.131C232.671,475.532,235.235,475.58,237.788,475.58z"/> </g><path style="fill:#0C723E;" d="M319.935,375.058c-45.183,9.608-94.143-4.017-127.953-40.253 c-51.292-54.96-48.318-141.083,6.638-192.371c27.273-25.456,62.221-37.527,96.775-36.536c-19.021,4.171-37.223,13.333-52.497,27.589 c-45.401,42.371-47.856,113.524-5.485,158.925c24.619,26.376,58.955,38.229,92.314,35.244C351.008,188.053,320.375,0,237.788,0 c-2.576,0-5.14,0.06-7.697,0.139c-0.571,0.015-1.149,0.038-1.72,0.06c-41.646,1.626-80.551,13.948-114.023,34.317v406.556 c33.472,20.365,72.374,32.691,114.023,34.313c0.571,0.022,1.149,0.053,1.72,0.068c2.557,0.079,5.121,0.131,7.697,0.131 C276.701,475.58,304.083,433.825,319.935,375.058z"/><g> <path style="fill:#F3F4F5;" d="M237.417,292.412c-42.371-45.401-39.915-116.554,5.485-158.925 c15.274-14.256,33.476-23.417,52.497-27.589c-34.554-0.991-69.505,11.08-96.775,36.536c-54.96,51.288-57.934,137.411-6.642,192.371 c33.81,36.232,82.77,49.857,127.953,40.253c4.002-14.842,7.261-30.784,9.792-47.402 C296.371,330.641,262.032,318.792,237.417,292.412z"/> <polygon style="fill:#F3F4F5;" points="354.414,137.287 374.009,159.653 401.343,147.928 386.118,173.478 405.72,195.851 376.712,189.273 361.491,214.82 358.78,185.211 329.784,178.625 357.117,166.9 "/> </g></symbol><symbol id="heart" viewBox="0 -28 512.001 512"><title>heart</title><path d="m256 455.515625c-7.289062 0-14.316406-2.640625-19.792969-7.4375-20.683593-18.085937-40.625-35.082031-58.21875-50.074219l-.089843-.078125c-51.582032-43.957031-96.125-81.917969-127.117188-119.3125-34.644531-41.804687-50.78125-81.441406-50.78125-124.742187 0-42.070313 14.425781-80.882813 40.617188-109.292969 26.503906-28.746094 62.871093-44.578125 102.414062-44.578125 29.554688 0 56.621094 9.34375 80.445312 27.769531 12.023438 9.300781 22.921876 20.683594 32.523438 33.960938 9.605469-13.277344 20.5-24.660157 32.527344-33.960938 23.824218-18.425781 50.890625-27.769531 80.445312-27.769531 39.539063 0 75.910156 15.832031 102.414063 44.578125 26.191406 28.410156 40.613281 67.222656 40.613281 109.292969 0 43.300781-16.132812 82.9375-50.777344 124.738281-30.992187 37.398437-75.53125 75.355469-127.105468 119.308594-17.625 15.015625-37.597657 32.039062-58.328126 50.167969-5.472656 4.789062-12.503906 7.429687-19.789062 7.429687zm-112.96875-425.523437c-31.066406 0-59.605469 12.398437-80.367188 34.914062-21.070312 22.855469-32.675781 54.449219-32.675781 88.964844 0 36.417968 13.535157 68.988281 43.882813 105.605468 29.332031 35.394532 72.960937 72.574219 123.476562 115.625l.09375.078126c17.660156 15.050781 37.679688 32.113281 58.515625 50.332031 20.960938-18.253907 41.011719-35.34375 58.707031-50.417969 50.511719-43.050781 94.136719-80.222656 123.46875-115.617188 30.34375-36.617187 43.878907-69.1875 43.878907-105.605468 0-34.515625-11.605469-66.109375-32.675781-88.964844-20.757813-22.515625-49.300782-34.914062-80.363282-34.914062-22.757812 0-43.652344 7.234374-62.101562 21.5-16.441406 12.71875-27.894532 28.796874-34.609375 40.046874-3.453125 5.785157-9.53125 9.238282-16.261719 9.238282s-12.808594-3.453125-16.261719-9.238282c-6.710937-11.25-18.164062-27.328124-34.609375-40.046874-18.449218-14.265626-39.34375-21.5-62.097656-21.5zm0 0"/></symbol><symbol id="shopping-bag" viewBox="0 0 321.2 321.2"><title>shopping-bag</title><path d="M306.4,313.2l-24-223.6c-0.4-3.6-3.6-6.4-7.2-6.4h-44.4V69.6c0-38.4-31.2-69.6-69.6-69.6c-38.4,0-69.6,31.2-69.6,69.6 v13.6H46c-3.6,0-6.8,2.8-7.2,6.4l-24,223.6c-0.4,2,0.4,4,1.6,5.6c1.2,1.6,3.2,2.4,5.2,2.4h278c2,0,4-0.8,5.2-2.4 C306,317.2,306.8,315.2,306.4,313.2z M223.6,123.6c3.6,0,6.4,2.8,6.4,6.4c0,3.6-2.8,6.4-6.4,6.4c-3.6,0-6.4-2.8-6.4-6.4 C217.2,126.4,220,123.6,223.6,123.6z M106,69.6c0-30.4,24.8-55.2,55.2-55.2c30.4,0,55.2,24.8,55.2,55.2v13.6H106V69.6z M98.8,123.6c3.6,0,6.4,2.8,6.4,6.4c0,3.6-2.8,6.4-6.4,6.4c-3.6,0-6.4-2.8-6.4-6.4C92.4,126.4,95.2,123.6,98.8,123.6z M30,306.4 L52.4,97.2h39.2v13.2c-8,2.8-13.6,10.4-13.6,19.2c0,11.2,9.2,20.4,20.4,20.4c11.2,0,20.4-9.2,20.4-20.4c0-8.8-5.6-16.4-13.6-19.2 V97.2h110.4v13.2c-8,2.8-13.6,10.4-13.6,19.2c0,11.2,9.2,20.4,20.4,20.4c11.2,0,20.4-9.2,20.4-20.4c0-8.8-5.6-16.4-13.6-19.2V97.2 H270l22.4,209.2H30z"/></symbol><symbol id="truck" viewBox="0 -67 430.08 430"><title>truck</title><path d="m428.96875 179.441406-21.769531-33.308594c-9.613281-14.71875-25.945313-23.507812-43.699219-23.507812h-56.300781v-32.398438c0-19.78125-16.085938-35.867187-35.867188-35.867187h-105.394531c-5.914062-30.886719-33.101562-54.3203125-65.6875-54.3203125-36.898438 0-66.914062 30.0195315-66.914062 66.9140625 0 23.199219 11.878906 43.664063 29.863281 55.671875h-56.371094c-3.773437 0-6.828125 3.054688-6.828125 6.828125s3.054688 6.828125 6.828125 6.828125h68.265625v13.652344h-27.308594c-3.769531 0-6.824218 3.054687-6.824218 6.828125 0 3.773437 3.054687 6.824219 6.824218 6.824219h27.308594v13.652343h-68.265625c-3.773437 0-6.828125 3.054688-6.828125 6.828125 0 3.773438 3.054688 6.828125 6.828125 6.828125h68.265625v30.234375c-12.035156 5.308594-20.480469 17.316406-20.480469 31.292969v6.738281c0 3.773438 3.058594 6.828125 6.828125 6.828125h60.546875c3.882813 16.703125 18.859375 29.203125 36.730469 29.203125 17.875 0 32.847656-12.5 36.730469-29.203125h131.339843c3.886719 16.703125 18.863282 29.203125 36.730469 29.203125 17.867188 0 32.847657-12.5 36.730469-29.203125h23.003906c3.773438 0 6.824219-3.054687 6.824219-6.828125v-75.984375c0-1.328125-.386719-2.628906-1.109375-3.734375zm-381.980469-112.488281c0-29.367187 23.894531-53.261719 53.261719-53.261719 29.371094 0 53.261719 23.894532 53.261719 53.261719s-23.890625 53.261719-53.261719 53.261719c-29.367188 0-53.261719-23.894532-53.261719-53.261719zm41.757813 123.941406h13.652344c3.773437 0 6.828124-3.054687 6.828124-6.828125 0-3.773437-3.054687-6.828125-6.828124-6.828125h-13.652344v-13.652343h47.789062c3.769532 0 6.824219-3.050782 6.824219-6.824219 0-3.773438-3.054687-6.828125-6.824219-6.828125h-47.789062v-13.652344h88.746094c3.769531 0 6.828124-3.054688 6.828124-6.828125s-3.058593-6.828125-6.828124-6.828125h-40.191407c17.707031-11.824219 29.453125-31.855469 29.8125-54.613281h104.222657c12.246093 0 22.210937 9.96875 22.210937 22.214843v127.972657h-204.714844c-.027343 0-.054687.007812-.085937.007812zm204.800781 61.4375h-97.476563c-1.074218-7.851562-4.558593-14.929687-9.703124-20.480469h107.179687zm-204.714844-20.480469h42.238281c-5.140624 5.550782-8.628906 12.628907-9.699218 20.480469h-53.105469c.046875-11.296875 9.257813-20.480469 20.566406-20.480469zm69.886719 49.6875c-13.277344 0-24.085938-10.804687-24.085938-24.085937 0-13.277344 10.808594-24.085937 24.085938-24.085937 13.28125 0 24.085938 10.808593 24.085938 24.085937 0 13.28125-10.804688 24.085937-24.085938 24.085937zm204.800781 0c-13.277343 0-24.085937-10.804687-24.085937-24.085937 0-13.277344 10.808594-24.085937 24.085937-24.085937 13.28125 0 24.085938 10.808593 24.085938 24.085937 0 13.28125-10.804688 24.085937-24.085938 24.085937zm52.90625-29.207031h-15.554687c-2.511719-18.386719-18.285156-32.617187-37.351563-32.617187-19.066406 0-34.835937 14.230468-37.351562 32.617187h-18.96875v-116.050781h56.300781c13.121094 0 25.1875 6.472656 32.273438 17.316406l20.652343 31.609375zm0 0"/><path d="m374.6875 257.453125c0 6.167969-5 11.167969-11.167969 11.167969s-11.167969-5-11.167969-11.167969 5-11.167969 11.167969-11.167969 11.167969 5 11.167969 11.167969zm0 0"/><path d="m169.886719 257.453125c0 6.167969-5 11.167969-11.167969 11.167969-6.164062 0-11.164062-5-11.164062-11.167969s5-11.167969 11.164062-11.167969c6.167969 0 11.167969 5 11.167969 11.167969zm0 0"/><path d="m109.226562 66.953125v-29.867187c0-3.773438-3.054687-6.824219-6.828124-6.824219-3.769532 0-6.824219 3.050781-6.824219 6.824219v27.640624l-13.933594 19.113282c-2.222656 3.046875-1.554687 7.3125 1.492187 9.53125 1.21875.890625 2.625 1.316406 4.019532 1.316406 2.105468 0 4.183594-.972656 5.519531-2.808594l15.246094-20.90625c.847656-1.164062 1.308593-2.570312 1.308593-4.019531zm0 0"/><path d="m361.21875 143.105469h-13.058594c-3.773437 0-6.828125 3.054687-6.828125 6.828125v47.785156c0 3.773438 3.054688 6.828125 6.828125 6.828125h45.945313c4.28125 0 8.113281-2.214844 10.261719-5.914063 2.148437-3.699218 2.152343-8.128906.035156-11.820312l-15.941406-27.902344c-5.566407-9.742187-16.007813-15.804687-27.242188-15.804687zm-6.230469 47.789062v-34.132812h6.230469c6.347656 0 12.242188 3.417969 15.386719 8.925781l14.402343 25.207031zm0 0"/></symbol><symbol id="repeat-button" viewBox="0 0 456.559 456.559"><title>repeat-button</title><path d="M351.79,151.874c-3.434,0-6.875-1.308-9.498-3.931c-5.238-5.245-5.238-13.75,0-18.995l53.02-53.006l-53.02-53.013 c-5.238-5.245-5.238-13.75,0-18.995c5.245-5.245,13.75-5.245,18.995,0l62.511,62.511c2.518,2.518,3.931,5.938,3.931,9.498 c0,3.56-1.413,6.98-3.931,9.498l-62.511,62.504C358.665,150.566,355.224,151.874,351.79,151.874z"/><path d="M42.958,227.428c-7.413,0-13.428-6.015-13.428-13.428v-80.932c0-38.907,31.647-70.554,70.554-70.554h314.218 c7.413,0,13.428,6.015,13.428,13.428c0,7.413-6.015,13.428-13.428,13.428H100.083c-24.094,0-43.697,19.604-43.697,43.697V214 C56.386,221.414,50.371,227.428,42.958,227.428z"/><path d="M357.162,394.049H42.258c-7.413,0-13.428-6.015-13.428-13.428s6.015-13.428,13.428-13.428h314.903 c24.101,0,43.704-19.604,43.704-43.697v-82.534c0-7.413,6.015-13.428,13.428-13.428c7.413,0,13.428,6.015,13.428,13.428v82.534 C427.722,362.402,396.068,394.049,357.162,394.049z"/><path d="M104.769,456.559c-3.434,0-6.875-1.308-9.498-3.931l-62.511-62.511c-2.518-2.518-3.931-5.938-3.931-9.498 s1.413-6.98,3.931-9.498l62.511-62.504c5.245-5.245,13.75-5.245,18.995,0c5.238,5.245,5.238,13.75,0,18.995l-53.02,53.006 l53.02,53.013c5.238,5.245,5.238,13.75,0,18.995C111.644,455.252,108.203,456.559,104.769,456.559z"/></symbol></svg>